<svg id="Capa_1" enable-background="new 0 0 512 512" height="512" viewBox="0 0 512 512" width="512" xmlns="http://www.w3.org/2000/svg"><g><g><g><g><g><g><path d="m370.315 512h-326.152c-10.446 0-18.914-8.468-18.914-18.914v-432.048c0-10.446 8.468-18.914 18.914-18.914h326.152c10.446 0 18.914 8.468 18.914 18.914v432.049c0 10.445-8.468 18.913-18.914 18.913z" fill="#eab14d"/><path d="m56.163 474.326v-394.528c0-3.734 3.027-6.76 6.76-6.76h288.632c3.734 0 6.76 3.027 6.76 6.76v394.528c0 3.734-3.027 6.76-6.76 6.76h-288.632c-3.733 0-6.76-3.026-6.76-6.76z" fill="#f6f9f9"/><path d="m351.555 73.038h-62.715c3.734 0 6.76 3.027 6.76 6.761v394.528c0 3.734-3.027 6.761-6.76 6.761h62.716c3.734 0 6.76-3.027 6.76-6.761v-394.529c0-3.734-3.027-6.76-6.761-6.76z" fill="#e7ecf1"/><path d="m154.461 213.872h-23.036c-2.661 0-4.818 2.157-4.818 4.818v58.372h32.672v-58.372c0-2.66-2.157-4.818-4.818-4.818z" fill="#8c9ba6"/><path d="m222.622 187.092h-23.036c-2.661 0-4.818 2.157-4.818 4.818v85.153h32.672v-85.153c0-2.661-2.157-4.818-4.818-4.818z" fill="#66b49d"/><path d="m290.782 150.683h-23.036c-2.661 0-4.818 2.157-4.818 4.818v121.562h32.672v-121.562c0-2.661-2.157-4.818-4.818-4.818z" fill="#fc8086"/><path d="m247.419 23.538v-9.957c0-7.5-6.081-13.581-13.582-13.581h-53.197c-7.501 0-13.581 6.081-13.581 13.581v9.957c0 3.067-2.487 5.554-5.554 5.554h-22.14c-7.365 0-13.336 5.971-13.336 13.336v30.61h162.418v-30.61c0-7.365-5.971-13.336-13.336-13.336h-22.14c-3.066 0-5.552-2.487-5.552-5.554z" fill="#c2d0da"/></g></g></g></g><g><g><path d="m319.27 284.789h-212.906c-10.411 0-18.882-8.47-18.882-18.881v-142.384c0-4.268 3.459-7.726 7.726-7.726s7.726 3.459 7.726 7.726v142.383c0 1.89 1.538 3.429 3.429 3.429h212.907c4.268 0 7.726 3.459 7.726 7.726s-3.459 7.727-7.726 7.727z" fill="#dae4ea"/></g></g><g><path d="m162.845 355.199h-67.636c-4.267 0-7.726-3.459-7.726-7.726s3.459-7.726 7.726-7.726h67.636c4.267 0 7.726 3.459 7.726 7.726s-3.459 7.726-7.726 7.726z" fill="#ddeafb"/></g><g><path d="m162.845 395.73h-67.636c-4.267 0-7.726-3.459-7.726-7.726s3.459-7.726 7.726-7.726h67.636c4.267 0 7.726 3.459 7.726 7.726s-3.459 7.726-7.726 7.726z" fill="#ddeafb"/></g><g><path d="m162.845 436.261h-67.636c-4.267 0-7.726-3.459-7.726-7.726s3.459-7.726 7.726-7.726h67.636c4.267 0 7.726 3.459 7.726 7.726s-3.459 7.726-7.726 7.726z" fill="#ddeafb"/></g><g><g><path d="m372.942 372.158h34.299v86.368h-34.299z" fill="#e7ecf1" transform="matrix(.707 -.707 .707 .707 -179.436 397.487)"/><path d="m480.593 505.843c-8.21 8.21-21.52 8.21-29.729 0l-58.932-58.932c-3.556-3.556-3.556-9.321 0-12.876l16.853-16.853c3.556-3.556 9.321-3.556 12.876 0l58.932 58.932c8.21 8.209 8.21 21.519 0 29.729z" fill="#9d6b6b"/></g><circle cx="304.9" cy="330.15" fill="#818181" r="105.295"/><circle cx="304.9" cy="330.15" fill="#ddeafb" r="76.2"/><path d="m304.9 253.95c-11.296 0-22.007 2.477-31.65 6.887 26.28 12.02 44.55 38.524 44.55 69.312s-18.27 57.292-44.55 69.312c9.642 4.41 20.354 6.888 31.65 6.888 42.084 0 76.2-34.116 76.2-76.199 0-42.084-34.116-76.2-76.2-76.2z" fill="#bed8fb"/></g></g></g></svg>