<?xml version="1.0" encoding="iso-8859-1"?>
<!-- Generator: Adobe Illustrator 19.0.0, SVG Export Plug-In . SVG Version: 6.00 Build 0)  -->
<svg version="1.1" id="Layer_1" xmlns="http://www.w3.org/2000/svg" xmlns:xlink="http://www.w3.org/1999/xlink" x="0px" y="0px"
	 viewBox="0 0 512.001 512.001" style="enable-background:new 0 0 512.001 512.001;" xml:space="preserve">
<g>
	<g>
		<path d="M422.244,430.198c16.574-26.852,25.756-57.117,25.756-88.863c0-73.952-46.664-138.103-116.374-161.483
			c-9.379-15.152-24.776-26.092-42.94-29.37l9.98-19.96c2.635-5.271,0.5-11.677-4.771-14.312l9.542-19.083
			c5.271,2.615,11.656,0.5,14.313-4.771l22.458-44.917c2.635-5.271,0.5-11.677-4.771-14.313l-64-32
			c-5.281-2.625-11.667-0.51-14.313,4.771l-22.458,44.917c-2.635,5.271-0.5,11.677,4.771,14.313l-9.542,19.083
			c-5.26-2.615-11.677-0.5-14.313,4.771l-86.458,172.917c-2.635,5.271-0.5,11.677,4.771,14.313l64,32
			c1.531,0.76,3.156,1.125,4.76,1.125c3.917,0,7.677-2.156,9.552-5.896l21.691-43.383c11.432,10.633,26.626,17.279,43.434,17.279
			c14.004,0,26.863-4.65,37.411-12.307c29.22,14.289,47.922,43.49,47.922,76.307c0,47.052-38.281,85.333-85.333,85.333h-85.333
			v-21.333h32c5.896,0,10.667-4.771,10.667-10.667c0-5.896-4.771-10.667-10.667-10.667h-42.667h-64H74.667
			c-5.896,0-10.667,4.771-10.667,10.667c0,5.896,4.771,10.667,10.667,10.667h32v21.333c-23.531,0-42.667,19.135-42.667,42.667v32
			c0,5.896,4.771,10.667,10.667,10.667h362.667c5.896,0,10.667-4.771,10.667-10.667v-32
			C448.001,451.815,437.376,436.762,422.244,430.198z M213.334,213.335c0,9.831,2.41,19.04,6.387,27.371l-21.824,43.65
			l-44.917-22.458l76.917-153.833c5.281,2.615,11.667,0.5,14.313-4.771l19.083-38.167c2.635-5.271,0.5-11.677-4.771-14.313
			l12.917-25.833l44.917,22.458l-12.917,25.833c-5.271-2.604-11.677-0.5-14.313,4.771l-19.083,38.167
			c-2.635,5.271-0.5,11.677,4.771,14.312l-10.042,20.082C235.48,156.461,213.334,182.345,213.334,213.335z M277.334,256.001
			c-23.531,0-42.667-19.135-42.667-42.667s19.135-42.667,42.667-42.667s42.667,19.135,42.667,42.667
			S300.865,256.001,277.334,256.001z M384.001,341.335c0-38.668-20.66-73.453-53.583-92.292
			c6.888-10.207,10.917-22.495,10.917-35.708c0-2.418-0.451-4.714-0.714-7.063c52.142,24.258,86.047,76.095,86.047,135.063
			c0,30.773-9.633,60.079-27.372,85.333h-58.621C366.812,407.207,384.001,376.349,384.001,341.335z M128.001,405.335h42.667v21.333
			h-42.667V405.335z M426.667,490.668H85.334v-21.333c0-11.76,9.573-21.333,21.333-21.333h10.667h64h224
			c11.76,0,21.333,9.573,21.333,21.333V490.668z"/>
	</g>
</g>
<g>
</g>
<g>
</g>
<g>
</g>
<g>
</g>
<g>
</g>
<g>
</g>
<g>
</g>
<g>
</g>
<g>
</g>
<g>
</g>
<g>
</g>
<g>
</g>
<g>
</g>
<g>
</g>
<g>
</g>
</svg>
