<svg id="Layer_1_1_" enable-background="new 0 0 64 64" height="512" viewBox="0 0 64 64" width="512" xmlns="http://www.w3.org/2000/svg"><g><circle cx="32" cy="42" r="6"/><circle cx="42" cy="37" r="4"/><circle cx="48" cy="31" r="4"/><circle cx="22" cy="37" r="4"/><circle cx="16" cy="31" r="4"/><path d="m32 52c-2.209 0-4 2.239-4 5s1.791 5 4 5 4-2.239 4-5-1.791-5-4-5zm1 6h-2v-2h2z"/><path d="m43 49c-2.209 0-4 1.791-4 4s1.791 4 4 4 4-1.791 4-4-1.791-4-4-4zm1 5h-2v-2h2z"/><path d="m52 44c-1.657 0-3 1.343-3 3s1.343 3 3 3 3-1.343 3-3-1.343-3-3-3zm1 4h-2v-2h2z"/><path d="m57 36c-1.657 0-3 1.343-3 3s1.343 3 3 3 3-1.343 3-3-1.343-3-3-3zm1 4h-2v-2h2z"/><path d="m21 49c-2.209 0-4 1.791-4 4s1.791 4 4 4 4-1.791 4-4-1.791-4-4-4zm1 5h-2v-2h2z"/><path d="m15 47c0-1.657-1.343-3-3-3s-3 1.343-3 3 1.343 3 3 3 3-1.343 3-3zm-2 1h-2v-2h2z"/><path d="m10 39c0-1.657-1.343-3-3-3s-3 1.343-3 3 1.343 3 3 3 3-1.343 3-3zm-2 1h-2v-2h2z"/><path d="m36.574 54.587c.223.606.363 1.265.406 1.956.709-.132 1.414-.282 2.11-.464-.423-.535-.738-1.152-.914-1.832-.53.129-1.065.24-1.602.34z"/><path d="m48.566 49.018c-.477.395-.968.771-1.467 1.134.387.556.667 1.19.803 1.878.715-.5 1.413-1.029 2.084-1.593-.587-.346-1.074-.832-1.42-1.419z"/><path d="m53.658 43.371c.621.285 1.153.724 1.554 1.269.372-.559.731-1.129 1.066-1.713-.684-.125-1.298-.432-1.813-.858-.257.442-.528.875-.807 1.302z"/><path d="m6.717 35.029c-.467-1.966-.717-3.987-.717-6.029 0-8.789 4.388-16.568 11.083-21.276-3.15 3.536-5.083 8.179-5.083 13.276 0 2.924.622 5.731 1.834 8.357.704-.549 1.166-1.396 1.166-2.357 0-.017.009-.031.01-.047-.668-1.902-1.01-3.895-1.01-5.953 0-9.925 8.075-18 18-18s18 8.075 18 18c0 2.059-.342 4.052-1.01 5.951.001.017.01.032.01.049 0 .961.462 1.808 1.166 2.357 1.212-2.624 1.834-5.43 1.834-8.357 0-5.097-1.933-9.74-5.083-13.276 6.695 4.708 11.083 12.487 11.083 21.276 0 2.042-.25 4.063-.717 6.029.698.05 1.35.266 1.904.629.53-2.17.813-4.403.813-6.658 0-15.439-12.561-28-28-28s-28 12.561-28 28c0 2.255.283 4.488.813 6.658.554-.364 1.205-.579 1.904-.629z"/><path d="m24.909 56.08c.698.177 1.402.334 2.111.461.044-.692.184-1.351.408-1.958-.538-.095-1.073-.209-1.604-.334-.178.679-.493 1.296-.915 1.831z"/><path d="m14.013 50.437c.672.558 1.366 1.093 2.085 1.591.136-.688.416-1.323.804-1.879-.503-.36-.992-.738-1.47-1.128-.346.586-.832 1.071-1.419 1.416z"/><path d="m10.344 43.369c-.283-.427-.552-.86-.812-1.298-.515.426-1.129.731-1.812.856.338.579.692 1.151 1.069 1.711.401-.545.933-.984 1.555-1.269z"/><path d="m38 38c-.028 0-.052-.014-.08-.016-1.289.449-2.621.754-3.988.903.522.734 1.233 1.322 2.066 1.688 1.496-.31 2.953-.777 4.349-1.421-.549-.697-1.392-1.154-2.347-1.154z"/><path d="m46.914 34.316c-.166-.706-.581-1.314-1.149-1.73-.663.787-1.406 1.498-2.192 2.163.414.573 1.023.992 1.732 1.161.563-.504 1.106-1.03 1.609-1.594z"/><path d="m30.072 38.882c-1.368-.146-2.697-.456-3.984-.899-.031.002-.057.017-.088.017-.959 0-1.805.461-2.354 1.163 1.395.639 2.847 1.114 4.344 1.419.841-.367 1.557-.961 2.082-1.7z"/><path d="m18.683 35.914c.706-.166 1.314-.581 1.73-1.149-.787-.663-1.498-1.407-2.163-2.192-.573.414-.992 1.023-1.161 1.732.505.563 1.031 1.106 1.594 1.609z"/></g></svg>