<?xml version="1.0" encoding="iso-8859-1"?>
<!-- Generator: Adobe Illustrator 19.0.0, SVG Export Plug-In . SVG Version: 6.00 Build 0)  -->
<svg version="1.1" id="Layer_1" xmlns="http://www.w3.org/2000/svg" xmlns:xlink="http://www.w3.org/1999/xlink" x="0px" y="0px"
	 viewBox="0 0 512.001 512.001" style="enable-background:new 0 0 512.001 512.001;" xml:space="preserve">
<g>
	<g>
		<g>
			<path d="M496.419,140.607c0.01,0.225,0.05,1.104,0.133,2.914C497.615,166.875,496.482,142.001,496.419,140.607z"/>
			<path d="M473.364,112.49c-61.858-21.646-99.241-73.861-112.443-95.306C354.297,6.424,342.833,0,330.255,0H181.707
				c-12.579,0-24.043,6.424-30.667,17.185c-13.202,21.444-50.584,73.66-112.443,95.306c-13.441,4.704-22.543,16.884-23.187,31.031
				c-1.538,33.766-0.057,100.944,27.138,171.488c15.349,39.814,36.904,75.298,64.067,105.467
				c32.42,36.006,73.229,64.844,121.293,85.714c8.919,3.873,18.496,5.81,28.071,5.81c9.575,0,19.151-1.937,28.071-5.81
				c87.213-37.869,148.906-100.487,183.365-186.117c1.546-3.843-0.315-8.211-4.158-9.758c-3.842-1.548-8.211,0.315-9.758,4.158
				c-32.934,81.842-91.954,141.715-175.424,177.958c-14.044,6.097-30.15,6.097-44.194,0
				C34.302,405.772,27.673,203.984,30.395,144.203c0.364-7.994,5.528-14.885,13.157-17.554c11.372-3.979,21.932-8.869,31.735-14.36
				c1.974,4.934,4.871,11.795,8.772,20.088c1.278,2.717,3.976,4.31,6.792,4.31c1.069,0,2.156-0.23,3.188-0.715
				c3.748-1.763,5.357-6.231,3.594-9.979c-4.413-9.381-7.5-16.895-9.339-21.617c37.934-24.988,62.6-58.338,75.52-79.327
				c3.873-6.292,10.562-10.049,17.893-10.049h148.548c7.33,0,14.02,3.756,17.893,10.047c12.92,20.987,37.584,54.336,75.515,79.323
				c-4.111,10.549-14.52,35.145-32.222,63.856c-3.654-1.535-7.664-2.385-11.871-2.385c-16.957,0-30.751,13.795-30.751,30.752
				c0,7.679,2.836,14.706,7.508,20.1c-5.221,6.131-10.609,12.035-16.107,17.65c-5.062-3.664-11.274-5.832-17.986-5.832
				c-16.957,0-30.752,13.795-30.752,30.752c0,4.802,1.108,9.349,3.079,13.403c-5.034,3.393-10.159,6.599-15.331,9.591
				c-5.643-6.521-13.97-10.66-23.25-10.66c-9.28,0-17.607,4.138-23.25,10.659c-5.17-2.993-10.293-6.201-15.327-9.598
				c1.969-4.051,3.075-8.595,3.075-13.395c0-16.957-13.795-30.752-30.752-30.752c-6.714,0-12.929,2.169-17.992,5.835
				c-5.471-5.59-10.859-11.493-16.107-17.648c4.675-5.395,7.513-12.424,7.513-20.106c0-16.957-13.795-30.751-30.752-30.751
				c-4.205,0-8.215,0.85-11.87,2.385c-3.279-5.319-6.466-10.74-9.507-16.193c-2.018-3.617-6.587-4.914-10.205-2.896
				c-3.618,2.018-4.914,6.586-2.896,10.205c3.373,6.046,6.918,12.058,10.57,17.94c-4.275,5.283-6.844,12.002-6.844,19.312
				c0,16.957,13.795,30.751,30.752,30.751c3.835,0,7.506-0.712,10.896-2c6.087,7.194,12.367,14.072,18.755,20.542
				c-1.963,4.047-3.066,8.585-3.066,13.377c0,16.957,13.795,30.752,30.752,30.752c6.705,0,12.911-2.163,17.97-5.82
				c5.983,4.088,12.096,7.927,18.271,11.476c-0.479,2.152-0.739,4.384-0.739,6.678c0,5.753,1.592,11.141,4.353,15.751h-7.892
				c-2.445,0-4.737,1.192-6.141,3.194l-21.193,30.221c-3.309,4.734,0.186,8.868,2.937,12.604
				c5.062,6.871,10.124,13.743,15.187,20.614c11.62,15.772,23.238,31.544,34.858,47.316c1.882,2.555,3.554,5.568,6.875,6.375
				c3.748,0.911,6.503-1.133,8.616-3.937c10.777-14.298,21.245-28.838,31.864-43.253c6.234-8.462,12.468-16.924,18.702-25.386
				c3.02-4.099,7.931-9.012,4.212-14.334l-21.193-30.221c-1.404-2.002-3.695-3.194-6.141-3.194h-7.892
				c2.761-4.61,4.353-9.997,4.353-15.751c0-2.293-0.26-4.526-0.739-6.677c6.179-3.549,12.294-7.385,18.28-11.47
				c5.057,3.652,11.26,5.813,17.961,5.813c16.957,0,30.752-13.795,30.752-30.752c0-4.794-1.104-9.334-3.069-13.383
				c6.419-6.5,12.697-13.377,18.749-20.54c3.391,1.291,7.065,2.004,10.904,2.004c16.957,0,30.752-13.795,30.752-30.751
				c0-7.309-2.568-14.027-6.842-19.31c17.582-28.297,28.275-52.645,33.201-64.991c9.8,5.489,20.36,10.378,31.729,14.357
				c7.628,2.669,12.793,9.56,13.157,17.554c1.243,27.296,0.559,82.029-17.993,141.895c-1.226,3.957,0.988,8.158,4.944,9.384
				c3.956,1.224,8.158-0.987,9.384-4.944c19.227-62.044,19.938-118.742,18.65-147.017
				C495.907,129.373,486.806,117.194,473.364,112.49z M132.391,212.343c-8.685,0-15.751-7.065-15.751-15.751
				s7.065-15.751,15.751-15.751c8.685,0,15.751,7.065,15.751,15.751S141.077,212.343,132.391,212.343z M189.728,275.013
				c-8.684,0-15.751-7.065-15.751-15.751s7.065-15.751,15.751-15.751s15.751,7.065,15.751,15.751S198.413,275.013,189.728,275.013z
				 M215.338,363.322h16.261l8.134,33.115L215.338,363.322z M233.278,348.32h-18.36l10.673-15.221h17.005L233.278,348.32z
				 M255.981,399.695l-8.934-36.374h17.87L255.981,399.695z M250.866,348.321l5.115-8.355l5.115,8.355H250.866z M255.981,318.099
				c-8.685,0-15.751-7.065-15.751-15.751s7.065-15.751,15.751-15.751c8.685,0,15.751,7.065,15.751,15.751
				S264.667,318.099,255.981,318.099z M272.228,396.436l8.134-33.115h16.261L272.228,396.436z M286.372,333.1l10.672,15.221h-18.36
				l-9.317-15.221H286.372z M322.235,275.013c-8.685,0-15.751-7.065-15.751-15.751s7.065-15.751,15.751-15.751
				c8.685,0,15.751,7.065,15.751,15.751S330.919,275.013,322.235,275.013z M379.57,212.343c-8.685,0-15.751-7.065-15.751-15.751
				s7.065-15.751,15.751-15.751s15.751,7.065,15.751,15.751S388.256,212.343,379.57,212.343z"/>
			<path d="M496.418,140.59C496.415,140.533,496.415,140.534,496.418,140.59L496.418,140.59z"/>
			<path d="M496.419,140.607c0-0.007-0.001-0.011-0.001-0.017C496.418,140.594,496.418,140.601,496.419,140.607z"/>
		</g>
	</g>
</g>
<g>
</g>
<g>
</g>
<g>
</g>
<g>
</g>
<g>
</g>
<g>
</g>
<g>
</g>
<g>
</g>
<g>
</g>
<g>
</g>
<g>
</g>
<g>
</g>
<g>
</g>
<g>
</g>
<g>
</g>
</svg>
