<?xml version="1.0" encoding="iso-8859-1"?>
<!-- Generator: Adobe Illustrator 19.0.0, SVG Export Plug-In . SVG Version: 6.00 Build 0)  -->
<svg version="1.1" id="Capa_1" xmlns="http://www.w3.org/2000/svg" xmlns:xlink="http://www.w3.org/1999/xlink" x="0px" y="0px"
	 viewBox="0 0 512 512" style="enable-background:new 0 0 512 512;" xml:space="preserve">
<g>
	<g>
		<path d="M456.652,106.269l-61.584-13.123c-0.675-0.144-1.342-0.308-2.01-0.47c-0.414-0.144-0.845-0.251-1.289-0.321
			c-28.921-7.575-50.309-32.091-53.705-62.026l-0.69-8.403c-0.056-0.685-0.205-1.352-0.439-1.985
			c-0.012-0.052-0.03-0.101-0.043-0.153c-0.033-0.131-0.071-0.261-0.109-0.39c-0.047-0.161-0.096-0.321-0.151-0.479
			c-0.045-0.129-0.092-0.257-0.142-0.384c-0.059-0.153-0.121-0.304-0.187-0.453c-0.055-0.125-0.112-0.25-0.172-0.373
			c-0.071-0.147-0.147-0.292-0.225-0.435c-0.065-0.12-0.13-0.24-0.199-0.358c-0.083-0.142-0.172-0.281-0.262-0.42
			c-0.074-0.115-0.147-0.23-0.225-0.343c-0.096-0.138-0.198-0.273-0.3-0.408c-0.081-0.108-0.16-0.217-0.245-0.322
			c-0.112-0.14-0.232-0.275-0.35-0.412c-0.084-0.097-0.164-0.195-0.252-0.291c-0.149-0.163-0.307-0.321-0.465-0.479
			c-0.102-0.102-0.203-0.203-0.308-0.302c-0.187-0.177-0.377-0.353-0.575-0.524c-0.105-0.091-0.216-0.178-0.324-0.267
			c-0.143-0.118-0.284-0.236-0.431-0.351c-0.123-0.096-0.251-0.189-0.378-0.282c-0.14-0.104-0.279-0.208-0.423-0.31
			c-0.134-0.095-0.272-0.187-0.409-0.28c-0.144-0.097-0.289-0.195-0.437-0.29c-0.142-0.092-0.288-0.181-0.433-0.271
			c-0.149-0.091-0.298-0.183-0.45-0.272c-0.151-0.089-0.305-0.177-0.459-0.264c-0.153-0.087-0.308-0.172-0.465-0.257
			c-0.157-0.085-0.315-0.17-0.476-0.253c-0.16-0.083-0.321-0.165-0.484-0.246c-0.163-0.081-0.326-0.163-0.492-0.242
			c-0.165-0.079-0.333-0.157-0.501-0.235c-0.167-0.077-0.334-0.155-0.504-0.231c-0.171-0.076-0.344-0.15-0.518-0.225
			c-0.172-0.074-0.344-0.149-0.518-0.222c-0.176-0.073-0.354-0.143-0.532-0.215c-0.175-0.07-0.349-0.142-0.526-0.21
			c-0.188-0.073-0.38-0.143-0.57-0.214c-0.338-0.126-0.678-0.25-1.022-0.371c-0.183-0.065-0.365-0.13-0.549-0.193
			c-0.192-0.065-0.386-0.128-0.579-0.192c-0.181-0.06-0.362-0.12-0.544-0.179c-0.195-0.063-0.392-0.123-0.588-0.184
			c-0.182-0.057-0.365-0.114-0.548-0.169c-0.198-0.06-0.398-0.118-0.597-0.177c-0.184-0.054-0.368-0.108-0.553-0.161
			c-0.199-0.057-0.398-0.112-0.598-0.168c-0.188-0.052-0.377-0.104-0.565-0.155c-0.197-0.053-0.395-0.106-0.593-0.158
			c-0.193-0.051-0.385-0.101-0.578-0.151c-0.196-0.05-0.392-0.1-0.588-0.149c-0.196-0.049-0.392-0.098-0.589-0.146
			c-0.194-0.047-0.387-0.095-0.58-0.141c-0.198-0.048-0.397-0.094-0.595-0.14c-0.193-0.045-0.385-0.09-0.578-0.134
			c-0.203-0.046-0.405-0.092-0.608-0.137c-0.187-0.042-0.373-0.084-0.56-0.125c-0.213-0.047-0.425-0.092-0.637-0.138
			c-0.175-0.038-0.35-0.076-0.525-0.113c-0.266-0.056-0.532-0.111-0.797-0.166c-0.114-0.024-0.228-0.048-0.342-0.071
			C295.306,1.62,276.295,0,256.15,0c-20.143,0-39.155,1.62-53.532,4.561c-0.381,0.078-0.763,0.157-1.146,0.239
			c-0.145,0.031-0.29,0.062-0.435,0.094c-0.24,0.051-0.48,0.103-0.72,0.156c-0.172,0.038-0.344,0.077-0.516,0.115
			c-0.215,0.048-0.43,0.096-0.646,0.146c-0.18,0.041-0.361,0.083-0.541,0.126c-0.212,0.049-0.423,0.099-0.635,0.15
			c-0.18,0.043-0.36,0.087-0.541,0.131c-0.209,0.051-0.418,0.103-0.628,0.155c-0.183,0.046-0.365,0.092-0.548,0.139
			c-0.207,0.053-0.414,0.107-0.62,0.161c-0.184,0.049-0.368,0.097-0.552,0.147c-0.203,0.055-0.406,0.111-0.609,0.167
			c-0.183,0.051-0.366,0.102-0.549,0.154c-0.205,0.059-0.41,0.119-0.614,0.179c-0.179,0.053-0.359,0.105-0.537,0.159
			c-0.211,0.064-0.42,0.129-0.63,0.194c-0.168,0.052-0.337,0.104-0.504,0.157c-0.265,0.085-0.528,0.172-0.791,0.26
			c-0.19,0.063-0.379,0.127-0.568,0.192c-0.279,0.096-0.558,0.193-0.833,0.293c-0.15,0.054-0.298,0.111-0.447,0.166
			c-0.213,0.079-0.426,0.158-0.636,0.239c-0.158,0.061-0.313,0.124-0.469,0.186c-0.197,0.078-0.393,0.157-0.587,0.237
			c-0.16,0.066-0.318,0.134-0.477,0.202c-0.187,0.08-0.374,0.161-0.559,0.243c-0.156,0.07-0.311,0.14-0.465,0.211
			c-0.183,0.084-0.364,0.169-0.544,0.255c-0.151,0.073-0.302,0.146-0.451,0.22c-0.178,0.089-0.354,0.178-0.529,0.269
			c-0.144,0.075-0.288,0.15-0.43,0.226c-0.175,0.094-0.348,0.191-0.519,0.287c-0.136,0.077-0.273,0.153-0.407,0.232
			c-0.175,0.103-0.346,0.207-0.517,0.313c-0.123,0.076-0.248,0.151-0.369,0.228c-0.184,0.118-0.363,0.238-0.541,0.359
			c-0.102,0.069-0.206,0.136-0.306,0.206c-0.247,0.173-0.488,0.35-0.723,0.53c-0.026,0.02-0.055,0.039-0.081,0.06
			c-0.259,0.2-0.51,0.405-0.753,0.613c-0.081,0.07-0.157,0.142-0.237,0.213c-0.16,0.142-0.32,0.285-0.473,0.431
			c-0.089,0.086-0.174,0.174-0.26,0.261c-0.135,0.135-0.269,0.27-0.397,0.409c-0.088,0.095-0.172,0.193-0.258,0.29
			c-0.119,0.135-0.236,0.271-0.348,0.41c-0.082,0.101-0.161,0.205-0.24,0.308c-0.106,0.139-0.21,0.28-0.31,0.422
			c-0.074,0.106-0.147,0.213-0.218,0.321c-0.095,0.145-0.186,0.292-0.275,0.441c-0.065,0.109-0.13,0.219-0.191,0.33
			c-0.085,0.153-0.163,0.309-0.241,0.466c-0.055,0.111-0.11,0.222-0.161,0.334c-0.075,0.166-0.142,0.335-0.209,0.505
			c-0.043,0.109-0.088,0.216-0.127,0.326c-0.067,0.189-0.125,0.383-0.182,0.577c-0.028,0.095-0.06,0.189-0.086,0.285
			c-0.004,0.017-0.011,0.033-0.015,0.049c-0.257,0.664-0.422,1.369-0.482,2.098l-0.697,8.493
			c-3.395,29.935-24.784,54.451-53.704,62.026c-0.445,0.07-0.876,0.177-1.291,0.321c-0.667,0.162-1.333,0.326-2.008,0.47
			l-66.557,14.182c-21.093,4.495-35.519,23.393-34.3,44.935c1.194,21.12,4.367,55.047,18.068,105.611
			c1.083,4,5.202,6.366,9.208,5.282c4.001-1.084,6.366-5.207,5.282-9.208c-13.333-49.209-16.413-82.085-17.569-102.533
			c-0.798-14.097,8.64-26.464,22.44-29.404l60.743-12.943c1.501,20.351,7.894,40.335,18.727,58.298
			c1.315,2.181,2.718,4.325,4.162,6.452v16.683v17.696c-0.164,0.232-0.333,0.461-0.476,0.709l-17.59,30.365
			c-1.728,2.982-1.728,6.687,0,9.669l17.591,30.366c1.719,2.967,4.917,4.81,8.345,4.81c3.428,0,6.627-1.843,8.346-4.81l17.59-30.365
			c1.728-2.982,1.728-6.687,0-9.669l-17.59-30.365c-0.341-0.589-0.755-1.12-1.203-1.615v-14.74
			c13.967,14.951,31.565,28.291,52.654,39.827c13.726,7.508,28.597,11.782,43.629,12.842c-0.053,0.361-0.09,0.728-0.09,1.104v12.312
			c-9.579-3.887-20.892-3.055-31.073,3.006c-6.321,3.762-10.948,9.981-12.694,17.062c-10.566,42.845,46.12,65.567,48.539,66.513
			c0.879,0.344,1.807,0.516,2.735,0.516c0.928,0,1.856-0.172,2.735-0.516c0.586-0.229,14.504-5.737,27.395-16.161
			c18.306-14.802,25.617-32.213,21.144-50.352c-1.746-7.081-6.373-13.299-12.695-17.062c-10.182-6.061-21.494-6.893-31.073-3.006
			v-12.312c0-0.376-0.037-0.743-0.09-1.104c15.032-1.059,29.903-5.333,43.629-12.842c20.723-11.336,38.079-24.411,51.928-39.047
			v14.865c-0.164,0.232-0.333,0.461-0.476,0.709l-17.59,30.365c-1.728,2.982-1.728,6.687,0,9.669l17.591,30.366
			c1.719,2.967,4.917,4.81,8.345,4.81c3.428,0,6.627-1.843,8.346-4.81l17.59-30.365c1.728-2.982,1.728-6.687,0-9.669l-17.59-30.365
			c-0.341-0.589-0.755-1.12-1.203-1.615v-32.413c0-0.001,0-0.001,0-0.002c1.709-2.471,3.355-4.968,4.888-7.511
			c10.833-17.963,17.225-37.947,18.727-58.298l55.771,11.884c16.593,3.536,28.235,18.93,27.079,35.808
			c-2.074,30.284-7.727,62.131-17.283,97.36c-1.085,4.001,1.278,8.124,5.279,9.209c0.658,0.179,1.319,0.264,1.969,0.264
			c3.305,0,6.333-2.2,7.24-5.543c9.816-36.19,15.629-68.987,17.771-100.265C497.243,133.5,480.507,111.353,456.652,106.269z
			 M196.083,21.711c6.312-2.001,16.758-4.132,30.989-5.44c0.26-0.023,0.521-0.047,0.783-0.07c0.497-0.044,1.001-0.087,1.507-0.129
			c0.736-0.06,1.474-0.119,2.219-0.175c0.073-0.005,0.146-0.011,0.219-0.016c4.822-0.355,9.836-0.604,14.953-0.742
			c0.035-0.001,0.071-0.002,0.106-0.003c0.946-0.025,1.896-0.046,2.848-0.064c0.419-0.008,0.846-0.013,1.269-0.019
			c0.612-0.009,1.224-0.019,1.838-0.025c1.1-0.01,2.21-0.016,3.336-0.016c1.139,0,2.263,0.006,3.375,0.016
			c0.261,0.002,0.517,0.006,0.776,0.009c0.838,0.01,1.67,0.021,2.492,0.037c0.326,0.006,0.649,0.013,0.972,0.02
			c0.762,0.016,1.516,0.035,2.264,0.055c0.318,0.009,0.635,0.017,0.95,0.027c0.798,0.024,1.587,0.052,2.368,0.081
			c0.236,0.009,0.474,0.017,0.708,0.026c2.043,0.081,4.03,0.18,5.963,0.294c0.232,0.014,0.458,0.029,0.688,0.043
			c0.724,0.044,1.443,0.091,2.151,0.139c0.283,0.019,0.564,0.04,0.844,0.06c0.656,0.047,1.305,0.096,1.947,0.146
			c0.277,0.022,0.553,0.043,0.827,0.066c0.674,0.055,1.339,0.112,1.998,0.171c0.215,0.019,0.434,0.038,0.648,0.057
			c1.74,0.159,3.423,0.331,5.05,0.513c0.209,0.023,0.412,0.048,0.619,0.071c0.597,0.068,1.188,0.138,1.769,0.209
			c0.249,0.03,0.494,0.061,0.74,0.092c0.536,0.067,1.064,0.136,1.586,0.205c0.243,0.032,0.487,0.065,0.727,0.098
			c0.546,0.075,1.082,0.151,1.612,0.228c0.19,0.028,0.384,0.055,0.572,0.082c1.431,0.212,2.804,0.431,4.118,0.656
			c0.181,0.031,0.357,0.063,0.536,0.094c0.466,0.081,0.927,0.163,1.378,0.246c0.214,0.039,0.425,0.079,0.636,0.119
			c0.412,0.077,0.819,0.156,1.218,0.234c0.207,0.041,0.414,0.081,0.618,0.122c0.41,0.082,0.81,0.166,1.205,0.249
			c0.171,0.036,0.345,0.072,0.513,0.108c1.106,0.238,2.155,0.479,3.144,0.721c0.157,0.038,0.308,0.077,0.462,0.116
			c0.332,0.083,0.659,0.166,0.977,0.249c0.175,0.046,0.347,0.092,0.518,0.138c0.289,0.077,0.571,0.155,0.848,0.232
			c0.165,0.046,0.33,0.092,0.49,0.138c0.284,0.081,0.558,0.162,0.829,0.243c0.134,0.04,0.273,0.081,0.404,0.121
			c0.358,0.11,0.704,0.219,1.037,0.328c0.048,0.016,0.097,0.031,0.145,0.047c0.343,0.113,0.671,0.226,0.987,0.338
			c0.117,0.042,0.227,0.083,0.34,0.124c0.15,0.055,0.295,0.109,0.438,0.163c-3.088,1.21-8.236,2.743-16.629,4.176
			c-12.78,2.182-29.066,3.385-45.859,3.385c-32.13,0-53.593-4.165-62.493-7.53C194.354,22.302,195.163,22.012,196.083,21.711z
			 M156.695,244.107l-11.387,19.658l-11.387-19.658l11.387-19.658L156.695,244.107z M287.051,274.543
			c2.894,1.722,5.006,4.549,5.797,7.756c6.358,25.784-26.799,43.18-36.707,47.745c-9.933-4.551-43.071-21.868-36.69-47.745
			c0.791-3.207,2.904-6.034,5.797-7.756c3.863-2.299,7.608-3.273,11.045-3.273c5.883,0,10.858,2.855,13.945,6.8
			c1.423,1.818,3.603,2.88,5.911,2.88c2.309,0,4.489-1.062,5.911-2.88C266.952,271.821,276.577,268.307,287.051,274.543z
			 M378.382,244.107l-11.387,19.658l-11.387-19.658l11.387-19.658L378.382,244.107z M366.17,159.614
			c-13.971,23.166-36.236,43.217-66.177,59.595c-27.452,15.016-60.23,15.016-87.682,0c-29.941-16.377-52.207-36.428-66.178-59.595
			c-10.224-16.954-15.842-35.17-16.768-54.22c30.861-10.076,53.71-36.449,59.121-68.713c4.414,1.694,9.402,2.908,14.134,3.876
			c14.377,2.941,33.389,4.561,53.532,4.561s39.155-1.62,53.532-4.561c4.732-0.968,9.72-2.182,14.134-3.876
			c5.41,32.264,28.259,58.637,59.12,68.713C382.012,124.444,376.394,142.66,366.17,159.614z"/>
	</g>
</g>
<g>
	<g>
		<path d="M462.772,282.904c-3.947-1.269-8.174,0.901-9.444,4.847c-19.371,60.219-48.909,128.295-87.792,202.337
			c-2.235,4.256-6.62,6.9-11.444,6.9H158.21c-4.823,0-9.208-2.644-11.443-6.9c-38.967-74.2-68.547-142.406-87.918-202.724
			c-1.268-3.948-5.495-6.12-9.442-4.851c-3.947,1.267-6.119,5.495-4.851,9.442c19.635,61.14,49.552,130.15,88.919,205.113
			c4.837,9.21,14.314,14.932,24.735,14.932h195.883c10.42,0,19.898-5.722,24.735-14.932
			c39.283-74.804,69.158-143.681,88.792-204.719C468.889,288.402,466.718,284.173,462.772,282.904z"/>
	</g>
</g>
<g>
</g>
<g>
</g>
<g>
</g>
<g>
</g>
<g>
</g>
<g>
</g>
<g>
</g>
<g>
</g>
<g>
</g>
<g>
</g>
<g>
</g>
<g>
</g>
<g>
</g>
<g>
</g>
<g>
</g>
</svg>
