<?xml version="1.0" encoding="iso-8859-1"?>
<!-- Generator: Adobe Illustrator 19.0.0, SVG Export Plug-In . SVG Version: 6.00 Build 0)  -->
<svg version="1.1" id="Capa_1" xmlns="http://www.w3.org/2000/svg" xmlns:xlink="http://www.w3.org/1999/xlink" x="0px" y="0px"
	 viewBox="0 0 512 512" style="enable-background:new 0 0 512 512;" xml:space="preserve">
<path style="fill:#F0CB4D;" d="M130.919,71.968C39.184,94.316-17.066,186.8,5.282,278.536S120.114,426.522,211.85,404.174
	s147.986-114.832,125.638-206.568C315.139,105.87,222.656,49.62,130.919,71.968z M203.493,369.869
	c-72.791,17.733-146.174-26.9-163.907-99.691c-17.733-72.79,26.9-146.174,99.691-163.907s146.174,26.9,163.907,99.691
	C320.916,278.753,276.283,352.137,203.493,369.869z"/>
<path style="fill:#E5BB45;" d="M337.487,197.606C316.208,110.259,231.345,55.087,144.084,69.299
	c38.036,6.222,72.863,25.212,98.701,53.44c29.216,18.085,51.623,47.203,60.399,83.224c14.269,58.572-11.85,117.52-60.52,147.557
	c-22.111,24.197-51.404,42.313-85.644,50.654c-4.389,1.069-8.78,1.955-13.165,2.669c21.968,3.594,45.005,2.931,67.995-2.669
	C303.586,381.825,359.835,289.342,337.487,197.606z"/>
<path style="fill:#F5B350;" d="M300.151,174.897c-91.736,22.348-147.986,114.832-125.638,206.568s114.832,147.986,206.568,125.638
	s147.986-114.832,125.638-206.568C484.37,208.799,391.887,152.549,300.151,174.897z M372.724,472.798
	c-72.791,17.733-146.174-26.9-163.907-99.691c-17.733-72.79,26.9-146.174,99.691-163.907s146.174,26.9,163.907,99.691
	C490.147,381.682,445.514,455.066,372.724,472.798z"/>
<path style="fill:#E89634;" d="M506.718,300.535c-21.279-87.347-106.142-142.519-193.403-128.307
	c38.036,6.222,72.863,25.212,98.7,53.44c29.216,18.085,51.623,47.203,60.398,83.224c14.269,58.572-11.85,117.52-60.52,147.557
	c-22.111,24.197-51.404,42.313-85.644,50.654c-4.389,1.069-8.78,1.955-13.165,2.669c21.968,3.594,45.005,2.931,67.995-2.669
	C472.817,484.754,529.066,392.271,506.718,300.535z"/>
<path style="fill:#E5BB45;" d="M303.183,205.962c0.356,1.46,0.677,2.92,0.983,4.38c1.437-0.4,2.881-0.786,4.341-1.142
	c10.263-2.5,20.537-3.76,30.666-3.876c-0.504-2.573-1.06-5.146-1.687-7.719c-2.3-9.442-5.355-18.502-9.064-27.145
	c-9.381,0.682-18.83,2.136-28.273,4.437c-2.573,0.627-5.114,1.317-7.63,2.052C297.076,185.997,300.683,195.7,303.183,205.962z"/>
<polygon style="fill:#53E7D3;" points="171.384,100.87 104.064,38.295 129.778,0 212.991,0 238.705,38.295 "/>
<polygon style="fill:#48D8BF;" points="171.384,100.87 171.384,0 212.991,0 238.705,38.295 "/>
<polygon style="fill:#A3E2D7;" points="238.666,38.237 212.991,0 129.778,0 104.103,38.237 "/>
<polygon style="fill:#B9F5ED;" points="171.384,0 171.384,38.237 238.666,38.237 222.013,13.436 212.991,0 "/>
<g>
</g>
<g>
</g>
<g>
</g>
<g>
</g>
<g>
</g>
<g>
</g>
<g>
</g>
<g>
</g>
<g>
</g>
<g>
</g>
<g>
</g>
<g>
</g>
<g>
</g>
<g>
</g>
<g>
</g>
</svg>
