<svg id="Capa_1" enable-background="new 0 0 512 512" height="512" viewBox="0 0 512 512" width="512" xmlns="http://www.w3.org/2000/svg"><path d="m509.617 74.162-51.532-48.097c-1.389-1.296-3.217-2.017-5.117-2.017h-137.42c-1.9 0-3.729.721-5.117 2.017l-51.532 48.097c-2.801 2.614-3.181 6.918-.883 9.983l120.242 160.323c1.417 1.889 3.639 3 6 3s4.583-1.111 6-3l120.242-160.323c2.298-3.065 1.918-7.369-.883-9.983zm-107.252-35.113h40.233l-9.975 30.258zm11.884 33.096h-59.981l29.991-29.99zm-78.356-2.838-9.975-30.258h40.234zm-14.858 2.838h-37.991l29.052-27.115zm4.945 15 36.835 111.731-83.799-111.731zm97.624 33.475c-3.933-1.295-8.174.84-9.471 4.775l-29.874 90.618-42.485-128.868h84.968l-2.038 6.182c-1.297 3.934.841 8.174 4.775 9.471.78.257 1.571.379 2.35.379 3.149 0 6.082-2 7.122-5.154l3.586-10.878h46.963l-83.797 111.731 22.676-68.784c1.296-3.934-.841-8.175-4.775-9.472zm23.877-48.475 8.939-27.115 29.052 27.115z"/><path d="m19.784 202.376 104.209 60.121c1.16.669 2.454 1.003 3.748 1.003s2.588-.334 3.748-1.003l104.21-60.121c2.321-1.34 3.752-3.816 3.752-6.497v-120.242c0-2.68-1.431-5.157-3.752-6.497l-104.209-60.12c-2.319-1.338-5.177-1.338-7.496 0l-104.21 60.121c-2.322 1.34-3.752 3.816-3.752 6.497v120.242c0 2.68 1.43 5.156 3.752 6.496zm43.869-20.956 56.589 32.647v28.948l-81.667-47.115zm71.589 32.647 56.589-32.647 25.078 14.479-81.668 47.115v-28.947zm64.129-45.614v-16.662c0-4.142-3.358-7.5-7.5-7.5s-7.5 3.358-7.5 7.5v16.616l-56.629 32.67-56.629-32.67v-65.296l56.629-32.67 56.629 32.67v16.615c0 4.142 3.358 7.5 7.5 7.5s7.5-3.358 7.5-7.5v-16.662l25.081-14.48v94.35zm-7.541-78.356-56.588-32.647v-28.948l81.667 47.116zm-71.588-32.647-56.589 32.647-25.078-14.479 81.667-47.116zm-64.129 45.614v65.39l-25.081 14.48v-94.35z"/><path d="m134.326 284.315c-1.34-2.32-3.815-3.75-6.495-3.75-2.679 0-5.156 1.43-6.495 3.75l-120.331 208.419c-1.34 2.32-1.34 5.18 0 7.5s3.815 3.75 6.495 3.75h240.661c2.68 0 5.155-1.43 6.495-3.75s1.34-5.18 0-7.5zm-14.669 77.343-53.192 92.131-38.652 22.511 91.844-159.078zm-43.92 104.089c1.172-.683 2.085-1.637 2.716-2.733l.004.003 49.373-85.516 42.877 74.266h-58.998c-4.142 0-7.5 3.358-7.5 7.5s3.358 7.5 7.5 7.5h69.926l37.343 22.217h-183.137zm113.477-11.925-54.558-94.498v-44.435l93.636 162.183z"/><path d="m453.689 282.761c-1.407-1.406-3.314-2.196-5.303-2.196h-128.26c-1.989 0-3.897.79-5.303 2.197l-40.078 40.078c-1.407 1.406-2.197 3.314-2.197 5.303v128.26c0 1.989.79 3.897 2.197 5.303l40.082 40.082c1.406 1.406 3.314 2.196 5.303 2.196h128.26c1.989 0 3.897-.79 5.304-2.197l40.078-40.081c1.406-1.407 2.196-3.314 2.196-5.303v-128.26c0-1.989-.79-3.897-2.197-5.304zm-5.818 158.126v-97.226h33.097v97.226zm-15 48.097h-97.226v-33.096h97.226zm-97.226-48.097v-97.226h56.628c4.142 0 7.5-3.358 7.5-7.5s-3.358-7.5-7.5-7.5h-56.628v-33.097h97.226v33.097h-8.53c-4.142 0-7.5 3.358-7.5 7.5s3.358 7.5 7.5 7.5h8.53v97.226zm-48.097-97.226h33.097v97.226h-33.097zm190.832-15h-30.509v-30.506zm-157.735-30.509v30.509h-30.509zm-30.505 157.735h30.505v30.505zm157.731 30.509v-30.509h30.506z"/></svg>