<svg xmlns="http://www.w3.org/2000/svg" viewBox="0 0 500 330"><g id="Layer_2" data-name="Layer 2"><g id="Vector_Smart_Object_Изображение" data-name="Vector Smart Object Изображение"><polygon points="407 0 306.7 0 250 36.7 193.3 0 93 0 0 81.3 0 105.3 250 330 500 105.3 500 81.3 407 0" style="fill:#f5f5f5"/><polygon points="354 80.8 407 0 306.7 0 354 80.8" style="fill:#f5f5f5"/><polygon points="500 81.3 354 80.8 500 105.3 500 81.3" style="fill:#d9d9d9"/><polygon points="250 36.7 354 80.8 306.7 0 250 36.7" style="fill:#ececec"/><polygon points="250 330 354 80.8 250 36.7 250 330" style="fill:#d9d9d9"/><polygon points="500 105.3 250 330 354 80.8 500 105.3" style="fill:#c5c4c4"/><polygon points="407 0 354 80.8 500 81.3 407 0" style="fill:#ececec"/><polygon points="146 80.8 93 0 193.3 0 146 80.8" style="fill:#ececec"/><polygon points="0 81.3 146 80.8 0 105.3 0 81.3" style="fill:#ececec"/><polygon points="250 36.7 146 80.8 193.3 0 250 36.7" style="fill:#d9d9d9"/><polygon points="250 330 146 80.8 250 36.7 250 330" style="fill:#c5c4c4"/><polygon points="0 105.3 250 330 146 80.8 0 105.3" style="fill:#d9d9d9"/><polygon points="93 0 146 80.8 0 81.3 93 0" style="fill:#f5f5f5"/></g></g></svg>